<svg xmlns="http://www.w3.org/2000/svg" xmlns:xlink="http://www.w3.org/1999/xlink" width="500" zoomAndPan="magnify" viewBox="0 0 375 374.999991" height="500" preserveAspectRatio="xMidYMid meet" version="1.0"><defs><g/></defs><g fill="#1e1e1e" fill-opacity="1"><g transform="translate(102.826864, 241.960688)"><g><path d="M 42.515625 -115.796875 C 46.429688 -115.921875 50.460938 -115.332031 54.609375 -114.03125 C 58.765625 -112.738281 62.628906 -110.925781 66.203125 -108.59375 C 69.773438 -106.257812 72.710938 -103.441406 75.015625 -100.140625 C 77.328125 -96.835938 78.601562 -93.128906 78.84375 -89.015625 C 79.0625 -85.222656 78.382812 -81.347656 76.8125 -77.390625 C 75.238281 -73.429688 73.203125 -69.632812 70.703125 -66 C 68.210938 -62.363281 65.738281 -59.039062 63.28125 -56.03125 C 61.488281 -53.925781 60.644531 -51.976562 60.75 -50.1875 C 60.832031 -48.8125 61.804688 -47.117188 63.671875 -45.109375 C 65.535156 -43.097656 67.800781 -40.953125 70.46875 -38.671875 C 73.144531 -36.398438 75.816406 -34.09375 78.484375 -31.75 C 81.160156 -29.414062 83.429688 -27.191406 85.296875 -25.078125 C 87.171875 -22.972656 88.160156 -21.023438 88.265625 -19.234375 C 88.398438 -16.921875 87.269531 -14.976562 84.875 -13.40625 C 82.476562 -11.832031 79.378906 -10.484375 75.578125 -9.359375 C 71.773438 -8.242188 67.914062 -7.28125 64 -6.46875 C 60.082031 -5.664062 56.601562 -4.910156 53.5625 -4.203125 C 50.644531 -3.503906 47.660156 -2.960938 44.609375 -2.578125 C 41.566406 -2.191406 38.488281 -1.488281 35.375 -0.46875 C 34.632812 -0.300781 33.953125 -0.125 33.328125 0.0625 C 32.710938 0.257812 32.085938 0.375 31.453125 0.40625 C 30.929688 0.4375 29.875 0.0507812 28.28125 -0.75 C 26.695312 -1.5625 25.207031 -2.613281 23.8125 -3.90625 C 22.425781 -5.207031 21.691406 -6.539062 21.609375 -7.90625 C 21.503906 -9.695312 22.097656 -11.269531 23.390625 -12.625 C 24.691406 -13.976562 26.375 -15.132812 28.4375 -16.09375 C 30.5 -17.050781 32.570312 -17.800781 34.65625 -18.34375 C 36.738281 -18.882812 38.46875 -19.195312 39.84375 -19.28125 C 40.882812 -19.34375 41.96875 -19.273438 43.09375 -19.078125 C 44.21875 -18.878906 45.3125 -18.8125 46.375 -18.875 C 48.59375 -19 50.71875 -19.703125 52.75 -20.984375 C 54.789062 -22.273438 55.769531 -23.660156 55.6875 -25.140625 C 55.625 -26.285156 55 -27.457031 53.8125 -28.65625 C 52.632812 -29.863281 51.242188 -31.03125 49.640625 -32.15625 C 48.046875 -33.28125 46.59375 -34.171875 45.28125 -34.828125 C 43.976562 -35.492188 43.113281 -35.816406 42.6875 -35.796875 C 41.53125 -35.734375 40.566406 -35.070312 39.796875 -33.8125 C 39.023438 -32.550781 38.234375 -31.128906 37.421875 -29.546875 C 36.609375 -27.960938 35.601562 -26.523438 34.40625 -25.234375 C 33.21875 -23.953125 31.625 -23.253906 29.625 -23.140625 C 25.71875 -22.921875 22.632812 -24.066406 20.375 -26.578125 C 18.113281 -29.085938 16.40625 -32.476562 15.25 -36.75 C 14.101562 -41.019531 13.25 -45.707031 12.6875 -50.8125 C 12.132812 -55.914062 11.550781 -60.988281 10.9375 -66.03125 C 10.332031 -71.082031 9.390625 -75.53125 8.109375 -79.375 C 7.203125 -82.175781 6.304688 -85.296875 5.421875 -88.734375 C 4.546875 -92.171875 4.050781 -94.84375 3.9375 -96.75 C 3.75 -100.007812 4.960938 -102.773438 7.578125 -105.046875 C 10.203125 -107.316406 13.5625 -109.175781 17.65625 -110.625 C 21.75 -112.082031 26.019531 -113.234375 30.46875 -114.078125 C 34.914062 -114.921875 38.929688 -115.492188 42.515625 -115.796875 Z M 56.921875 -86.3125 C 56.898438 -86.625 56.878906 -86.9375 56.859375 -87.25 C 56.847656 -87.570312 56.832031 -87.835938 56.8125 -88.046875 C 56.570312 -92.265625 54.976562 -95.082031 52.03125 -96.5 C 49.09375 -97.925781 45.304688 -98.503906 40.671875 -98.234375 C 36.984375 -98.015625 33.851562 -97.222656 31.28125 -95.859375 C 28.71875 -94.492188 27.488281 -92.863281 27.59375 -90.96875 C 28.90625 -88.507812 29.875 -85.441406 30.5 -81.765625 C 31.132812 -78.097656 31.71875 -74.453125 32.25 -70.828125 C 32.78125 -67.210938 33.457031 -64.179688 34.28125 -61.734375 C 35.113281 -59.296875 36.375 -58.128906 38.0625 -58.234375 C 38.894531 -58.273438 39.929688 -58.648438 41.171875 -59.359375 C 45.742188 -62.691406 49.191406 -66.703125 51.515625 -71.390625 C 53.847656 -76.085938 55.648438 -81.0625 56.921875 -86.3125 Z M 56.921875 -86.3125 "/></g></g></g><g fill="#1e1e1e" fill-opacity="1"><g transform="translate(192.221086, 236.792433)"><g><path d="M 27.671875 -48.578125 C 27.585938 -53.765625 27.609375 -58.953125 27.734375 -64.140625 C 27.859375 -69.328125 27.78125 -74.351562 27.5 -79.21875 C 27.320312 -82.164062 26.832031 -84.171875 26.03125 -85.234375 C 25.226562 -86.304688 23.664062 -86.773438 21.34375 -86.640625 C 19.644531 -86.546875 17.695312 -86.273438 15.5 -85.828125 C 13.3125 -85.378906 11.171875 -85.097656 9.078125 -84.984375 C 6.960938 -84.859375 4.804688 -84.96875 2.609375 -85.3125 C 0.421875 -85.664062 -1.421875 -86.457031 -2.921875 -87.6875 C -4.421875 -88.925781 -5.238281 -90.707031 -5.375 -93.03125 C -5.5 -95.144531 -4.757812 -96.960938 -3.15625 -98.484375 C -1.550781 -100.003906 0.546875 -101.257812 3.140625 -102.25 C 5.734375 -103.25 8.390625 -103.984375 11.109375 -104.453125 C 13.828125 -104.929688 16.238281 -105.234375 18.34375 -105.359375 C 24.351562 -105.703125 30.34375 -105.566406 36.3125 -104.953125 C 42.28125 -104.347656 48.21875 -103.738281 54.125 -103.125 C 60.03125 -102.519531 65.988281 -102.390625 72 -102.734375 C 72.84375 -102.785156 73.710938 -102.835938 74.609375 -102.890625 C 75.503906 -102.941406 76.425781 -103.046875 77.375 -103.203125 C 78.539062 -103.171875 79.960938 -102.753906 81.640625 -101.953125 C 83.328125 -101.148438 84.875 -100.101562 86.28125 -98.8125 C 87.6875 -97.519531 88.429688 -96.082031 88.515625 -94.5 C 88.671875 -91.96875 87.929688 -90.097656 86.296875 -88.890625 C 84.671875 -87.679688 82.785156 -86.878906 80.640625 -86.484375 C 78.492188 -86.097656 76.679688 -85.863281 75.203125 -85.78125 C 72.359375 -85.613281 69.453125 -85.523438 66.484375 -85.515625 C 63.523438 -85.503906 60.675781 -85.421875 57.9375 -85.265625 C 56.039062 -85.148438 54.707031 -84.859375 53.9375 -84.390625 C 53.175781 -83.921875 52.695312 -83.070312 52.5 -81.84375 C 52.300781 -80.625 52.066406 -78.734375 51.796875 -76.171875 C 51.078125 -68.398438 50.910156 -60.691406 51.296875 -53.046875 C 51.691406 -45.398438 52.007812 -37.71875 52.25 -30 C 52.375 -25.78125 52.238281 -22.046875 51.84375 -18.796875 C 51.457031 -15.546875 50.578125 -12.953125 49.203125 -11.015625 C 47.835938 -9.085938 45.625 -8.035156 42.5625 -7.859375 C 38.238281 -7.609375 34.800781 -8.441406 32.25 -10.359375 C 29.707031 -12.273438 28.328125 -15.132812 28.109375 -18.9375 C 27.828125 -23.882812 27.753906 -28.847656 27.890625 -33.828125 C 28.023438 -38.816406 28.007812 -43.738281 27.84375 -48.59375 C 27.84375 -48.59375 27.8125 -48.585938 27.75 -48.578125 C 27.695312 -48.578125 27.671875 -48.578125 27.671875 -48.578125 Z M 27.671875 -48.578125 "/></g></g></g><g fill="#0052c9" fill-opacity="1"><g transform="translate(100.248293, 239.497319)"><g><path d="M 42.515625 -115.796875 C 46.429688 -115.921875 50.460938 -115.332031 54.609375 -114.03125 C 58.765625 -112.738281 62.628906 -110.925781 66.203125 -108.59375 C 69.773438 -106.257812 72.710938 -103.441406 75.015625 -100.140625 C 77.328125 -96.835938 78.601562 -93.128906 78.84375 -89.015625 C 79.0625 -85.222656 78.382812 -81.347656 76.8125 -77.390625 C 75.238281 -73.429688 73.203125 -69.632812 70.703125 -66 C 68.210938 -62.363281 65.738281 -59.039062 63.28125 -56.03125 C 61.488281 -53.925781 60.644531 -51.976562 60.75 -50.1875 C 60.832031 -48.8125 61.804688 -47.117188 63.671875 -45.109375 C 65.535156 -43.097656 67.800781 -40.953125 70.46875 -38.671875 C 73.144531 -36.398438 75.816406 -34.09375 78.484375 -31.75 C 81.160156 -29.414062 83.429688 -27.191406 85.296875 -25.078125 C 87.171875 -22.972656 88.160156 -21.023438 88.265625 -19.234375 C 88.398438 -16.921875 87.269531 -14.976562 84.875 -13.40625 C 82.476562 -11.832031 79.378906 -10.484375 75.578125 -9.359375 C 71.773438 -8.242188 67.914062 -7.28125 64 -6.46875 C 60.082031 -5.664062 56.601562 -4.910156 53.5625 -4.203125 C 50.644531 -3.503906 47.660156 -2.960938 44.609375 -2.578125 C 41.566406 -2.191406 38.488281 -1.488281 35.375 -0.46875 C 34.632812 -0.300781 33.953125 -0.125 33.328125 0.0625 C 32.710938 0.257812 32.085938 0.375 31.453125 0.40625 C 30.929688 0.4375 29.875 0.0507812 28.28125 -0.75 C 26.695312 -1.5625 25.207031 -2.613281 23.8125 -3.90625 C 22.425781 -5.207031 21.691406 -6.539062 21.609375 -7.90625 C 21.503906 -9.695312 22.097656 -11.269531 23.390625 -12.625 C 24.691406 -13.976562 26.375 -15.132812 28.4375 -16.09375 C 30.5 -17.050781 32.570312 -17.800781 34.65625 -18.34375 C 36.738281 -18.882812 38.46875 -19.195312 39.84375 -19.28125 C 40.882812 -19.34375 41.96875 -19.273438 43.09375 -19.078125 C 44.21875 -18.878906 45.3125 -18.8125 46.375 -18.875 C 48.59375 -19 50.71875 -19.703125 52.75 -20.984375 C 54.789062 -22.273438 55.769531 -23.660156 55.6875 -25.140625 C 55.625 -26.285156 55 -27.457031 53.8125 -28.65625 C 52.632812 -29.863281 51.242188 -31.03125 49.640625 -32.15625 C 48.046875 -33.28125 46.59375 -34.171875 45.28125 -34.828125 C 43.976562 -35.492188 43.113281 -35.816406 42.6875 -35.796875 C 41.53125 -35.734375 40.566406 -35.070312 39.796875 -33.8125 C 39.023438 -32.550781 38.234375 -31.128906 37.421875 -29.546875 C 36.609375 -27.960938 35.601562 -26.523438 34.40625 -25.234375 C 33.21875 -23.953125 31.625 -23.253906 29.625 -23.140625 C 25.71875 -22.921875 22.632812 -24.066406 20.375 -26.578125 C 18.113281 -29.085938 16.40625 -32.476562 15.25 -36.75 C 14.101562 -41.019531 13.25 -45.707031 12.6875 -50.8125 C 12.132812 -55.914062 11.550781 -60.988281 10.9375 -66.03125 C 10.332031 -71.082031 9.390625 -75.53125 8.109375 -79.375 C 7.203125 -82.175781 6.304688 -85.296875 5.421875 -88.734375 C 4.546875 -92.171875 4.050781 -94.84375 3.9375 -96.75 C 3.75 -100.007812 4.960938 -102.773438 7.578125 -105.046875 C 10.203125 -107.316406 13.5625 -109.175781 17.65625 -110.625 C 21.75 -112.082031 26.019531 -113.234375 30.46875 -114.078125 C 34.914062 -114.921875 38.929688 -115.492188 42.515625 -115.796875 Z M 56.921875 -86.3125 C 56.898438 -86.625 56.878906 -86.9375 56.859375 -87.25 C 56.847656 -87.570312 56.832031 -87.835938 56.8125 -88.046875 C 56.570312 -92.265625 54.976562 -95.082031 52.03125 -96.5 C 49.09375 -97.925781 45.304688 -98.503906 40.671875 -98.234375 C 36.984375 -98.015625 33.851562 -97.222656 31.28125 -95.859375 C 28.71875 -94.492188 27.488281 -92.863281 27.59375 -90.96875 C 28.90625 -88.507812 29.875 -85.441406 30.5 -81.765625 C 31.132812 -78.097656 31.71875 -74.453125 32.25 -70.828125 C 32.78125 -67.210938 33.457031 -64.179688 34.28125 -61.734375 C 35.113281 -59.296875 36.375 -58.128906 38.0625 -58.234375 C 38.894531 -58.273438 39.929688 -58.648438 41.171875 -59.359375 C 45.742188 -62.691406 49.191406 -66.703125 51.515625 -71.390625 C 53.847656 -76.085938 55.648438 -81.0625 56.921875 -86.3125 Z M 56.921875 -86.3125 "/></g></g></g><g fill="#0052c9" fill-opacity="1"><g transform="translate(189.642515, 234.329064)"><g><path d="M 27.671875 -48.578125 C 27.585938 -53.765625 27.609375 -58.953125 27.734375 -64.140625 C 27.859375 -69.328125 27.78125 -74.351562 27.5 -79.21875 C 27.320312 -82.164062 26.832031 -84.171875 26.03125 -85.234375 C 25.226562 -86.304688 23.664062 -86.773438 21.34375 -86.640625 C 19.644531 -86.546875 17.695312 -86.273438 15.5 -85.828125 C 13.3125 -85.378906 11.171875 -85.097656 9.078125 -84.984375 C 6.960938 -84.859375 4.804688 -84.96875 2.609375 -85.3125 C 0.421875 -85.664062 -1.421875 -86.457031 -2.921875 -87.6875 C -4.421875 -88.925781 -5.238281 -90.707031 -5.375 -93.03125 C -5.5 -95.144531 -4.757812 -96.960938 -3.15625 -98.484375 C -1.550781 -100.003906 0.546875 -101.257812 3.140625 -102.25 C 5.734375 -103.25 8.390625 -103.984375 11.109375 -104.453125 C 13.828125 -104.929688 16.238281 -105.234375 18.34375 -105.359375 C 24.351562 -105.703125 30.34375 -105.566406 36.3125 -104.953125 C 42.28125 -104.347656 48.21875 -103.738281 54.125 -103.125 C 60.03125 -102.519531 65.988281 -102.390625 72 -102.734375 C 72.84375 -102.785156 73.710938 -102.835938 74.609375 -102.890625 C 75.503906 -102.941406 76.425781 -103.046875 77.375 -103.203125 C 78.539062 -103.171875 79.960938 -102.753906 81.640625 -101.953125 C 83.328125 -101.148438 84.875 -100.101562 86.28125 -98.8125 C 87.6875 -97.519531 88.429688 -96.082031 88.515625 -94.5 C 88.671875 -91.96875 87.929688 -90.097656 86.296875 -88.890625 C 84.671875 -87.679688 82.785156 -86.878906 80.640625 -86.484375 C 78.492188 -86.097656 76.679688 -85.863281 75.203125 -85.78125 C 72.359375 -85.613281 69.453125 -85.523438 66.484375 -85.515625 C 63.523438 -85.503906 60.675781 -85.421875 57.9375 -85.265625 C 56.039062 -85.148438 54.707031 -84.859375 53.9375 -84.390625 C 53.175781 -83.921875 52.695312 -83.070312 52.5 -81.84375 C 52.300781 -80.625 52.066406 -78.734375 51.796875 -76.171875 C 51.078125 -68.398438 50.910156 -60.691406 51.296875 -53.046875 C 51.691406 -45.398438 52.007812 -37.71875 52.25 -30 C 52.375 -25.78125 52.238281 -22.046875 51.84375 -18.796875 C 51.457031 -15.546875 50.578125 -12.953125 49.203125 -11.015625 C 47.835938 -9.085938 45.625 -8.035156 42.5625 -7.859375 C 38.238281 -7.609375 34.800781 -8.441406 32.25 -10.359375 C 29.707031 -12.273438 28.328125 -15.132812 28.109375 -18.9375 C 27.828125 -23.882812 27.753906 -28.847656 27.890625 -33.828125 C 28.023438 -38.816406 28.007812 -43.738281 27.84375 -48.59375 C 27.84375 -48.59375 27.8125 -48.585938 27.75 -48.578125 C 27.695312 -48.578125 27.671875 -48.578125 27.671875 -48.578125 Z M 27.671875 -48.578125 "/></g></g></g></svg>